<?xml version="1.0" standalone="no"?>
<!DOCTYPE svg PUBLIC "-//W3C//DTD SVG 20010904//EN"
 "http://www.w3.org/TR/2001/REC-SVG-20010904/DTD/svg10.dtd">
<svg xmlns="http://www.w3.org/2000/svg"
     width="110pt" height="110pt" viewBox="0 0 1110.000000 1106.000000"
     preserveAspectRatio="xMidYMid meet">

<g transform="translate(0.000000,1106.000000) scale(0.100000,-0.100000)"
fill="#000000" stroke="none">
<path d="M0 5530 l0 -5530 5550 0 5550 0 0 5530 0 5530 -47 -2 -48 -1 43 -4
42 -4 0 -5219 0 -5220 -22 -5 c-13 -3 -2273 -4 -5023 -3 l-5000 3 0 5220 0
5220 120 5 c66 4 -169 7 -522 8 l-643 2 0 -5530z"/>
<path d="M1337 11053 c18 -2 50 -2 70 0 21 2 7 4 -32 4 -38 0 -55 -2 -38 -4z"/>
<path d="M1497 11053 c18 -2 50 -2 70 0 21 2 7 4 -32 4 -38 0 -55 -2 -38 -4z"/>
<path d="M1657 11053 c18 -2 50 -2 70 0 21 2 7 4 -32 4 -38 0 -55 -2 -38 -4z"/>
<path d="M1817 11053 c18 -2 50 -2 70 0 21 2 7 4 -32 4 -38 0 -55 -2 -38 -4z"/>
<path d="M1977 11053 c18 -2 50 -2 70 0 21 2 7 4 -32 4 -38 0 -55 -2 -38 -4z"/>
<path d="M2137 11053 c18 -2 50 -2 70 0 21 2 7 4 -32 4 -38 0 -55 -2 -38 -4z"/>
<path d="M2297 11053 c18 -2 50 -2 70 0 21 2 7 4 -32 4 -38 0 -55 -2 -38 -4z"/>
<path d="M2457 11053 c18 -2 50 -2 70 0 21 2 7 4 -32 4 -38 0 -55 -2 -38 -4z"/>
<path d="M2617 11053 c18 -2 50 -2 70 0 21 2 7 4 -32 4 -38 0 -55 -2 -38 -4z"/>
<path d="M2777 11053 c18 -2 50 -2 70 0 21 2 7 4 -32 4 -38 0 -55 -2 -38 -4z"/>
<path d="M2937 11053 c18 -2 50 -2 70 0 21 2 7 4 -32 4 -38 0 -55 -2 -38 -4z"/>
<path d="M3097 11053 c18 -2 50 -2 70 0 21 2 7 4 -32 4 -38 0 -55 -2 -38 -4z"/>
<path d="M3257 11053 c18 -2 50 -2 70 0 21 2 7 4 -32 4 -38 0 -55 -2 -38 -4z"/>
<path d="M3417 11053 c18 -2 50 -2 70 0 21 2 7 4 -32 4 -38 0 -55 -2 -38 -4z"/>
<path d="M3577 11053 c18 -2 50 -2 70 0 21 2 7 4 -32 4 -38 0 -55 -2 -38 -4z"/>
<path d="M3737 11053 c18 -2 50 -2 70 0 21 2 7 4 -32 4 -38 0 -55 -2 -38 -4z"/>
<path d="M3897 11053 c18 -2 50 -2 70 0 21 2 7 4 -32 4 -38 0 -55 -2 -38 -4z"/>
<path d="M4057 11053 c18 -2 50 -2 70 0 21 2 7 4 -32 4 -38 0 -55 -2 -38 -4z"/>
<path d="M4217 11053 c18 -2 50 -2 70 0 21 2 7 4 -32 4 -38 0 -55 -2 -38 -4z"/>
<path d="M4377 11053 c18 -2 50 -2 70 0 21 2 7 4 -32 4 -38 0 -55 -2 -38 -4z"/>
<path d="M4537 11053 c18 -2 50 -2 70 0 21 2 7 4 -32 4 -38 0 -55 -2 -38 -4z"/>
<path d="M4697 11053 c18 -2 50 -2 70 0 21 2 7 4 -32 4 -38 0 -55 -2 -38 -4z"/>
<path d="M4857 11053 c18 -2 50 -2 70 0 21 2 7 4 -32 4 -38 0 -55 -2 -38 -4z"/>
<path d="M5017 11053 c18 -2 50 -2 70 0 21 2 7 4 -32 4 -38 0 -55 -2 -38 -4z"/>
<path d="M5177 11053 c18 -2 50 -2 70 0 21 2 7 4 -32 4 -38 0 -55 -2 -38 -4z"/>
<path d="M5337 11053 c18 -2 50 -2 70 0 21 2 7 4 -32 4 -38 0 -55 -2 -38 -4z"/>
<path d="M5497 11053 c18 -2 50 -2 70 0 21 2 7 4 -32 4 -38 0 -55 -2 -38 -4z"/>
<path d="M5657 11053 c18 -2 50 -2 70 0 21 2 7 4 -32 4 -38 0 -55 -2 -38 -4z"/>
<path d="M5817 11053 c18 -2 50 -2 70 0 21 2 7 4 -32 4 -38 0 -55 -2 -38 -4z"/>
<path d="M5977 11053 c18 -2 50 -2 70 0 21 2 7 4 -32 4 -38 0 -55 -2 -38 -4z"/>
<path d="M6137 11053 c18 -2 50 -2 70 0 21 2 7 4 -32 4 -38 0 -55 -2 -38 -4z"/>
<path d="M6297 11053 c18 -2 50 -2 70 0 21 2 7 4 -32 4 -38 0 -55 -2 -38 -4z"/>
<path d="M6457 11053 c18 -2 50 -2 70 0 21 2 7 4 -32 4 -38 0 -55 -2 -38 -4z"/>
<path d="M6617 11053 c18 -2 50 -2 70 0 21 2 7 4 -32 4 -38 0 -55 -2 -38 -4z"/>
<path d="M6777 11053 c18 -2 50 -2 70 0 21 2 7 4 -32 4 -38 0 -55 -2 -38 -4z"/>
<path d="M6937 11053 c18 -2 50 -2 70 0 21 2 7 4 -32 4 -38 0 -55 -2 -38 -4z"/>
<path d="M7097 11053 c18 -2 50 -2 70 0 21 2 7 4 -32 4 -38 0 -55 -2 -38 -4z"/>
<path d="M7257 11053 c18 -2 50 -2 70 0 21 2 7 4 -32 4 -38 0 -55 -2 -38 -4z"/>
<path d="M7417 11053 c18 -2 50 -2 70 0 21 2 7 4 -32 4 -38 0 -55 -2 -38 -4z"/>
<path d="M7577 11053 c18 -2 50 -2 70 0 21 2 7 4 -32 4 -38 0 -55 -2 -38 -4z"/>
<path d="M7737 11053 c18 -2 50 -2 70 0 21 2 7 4 -32 4 -38 0 -55 -2 -38 -4z"/>
<path d="M7897 11053 c18 -2 50 -2 70 0 21 2 7 4 -32 4 -38 0 -55 -2 -38 -4z"/>
<path d="M8057 11053 c18 -2 50 -2 70 0 21 2 7 4 -32 4 -38 0 -55 -2 -38 -4z"/>
<path d="M8217 11053 c18 -2 50 -2 70 0 21 2 7 4 -32 4 -38 0 -55 -2 -38 -4z"/>
<path d="M8377 11053 c18 -2 50 -2 70 0 21 2 7 4 -32 4 -38 0 -55 -2 -38 -4z"/>
<path d="M8537 11053 c18 -2 50 -2 70 0 21 2 7 4 -32 4 -38 0 -55 -2 -38 -4z"/>
<path d="M8697 11053 c18 -2 50 -2 70 0 21 2 7 4 -32 4 -38 0 -55 -2 -38 -4z"/>
<path d="M8857 11053 c18 -2 50 -2 70 0 21 2 7 4 -32 4 -38 0 -55 -2 -38 -4z"/>
<path d="M9017 11053 c18 -2 50 -2 70 0 21 2 7 4 -32 4 -38 0 -55 -2 -38 -4z"/>
<path d="M9177 11053 c18 -2 50 -2 70 0 21 2 7 4 -32 4 -38 0 -55 -2 -38 -4z"/>
<path d="M9337 11053 c18 -2 50 -2 70 0 21 2 7 4 -32 4 -38 0 -55 -2 -38 -4z"/>
<path d="M9497 11053 c18 -2 50 -2 70 0 21 2 7 4 -32 4 -38 0 -55 -2 -38 -4z"/>
<path d="M9657 11053 c18 -2 50 -2 70 0 21 2 7 4 -32 4 -38 0 -55 -2 -38 -4z"/>
<path d="M9817 11053 c18 -2 50 -2 70 0 21 2 7 4 -32 4 -38 0 -55 -2 -38 -4z"/>
<path d="M9977 11053 c18 -2 50 -2 70 0 21 2 7 4 -32 4 -38 0 -55 -2 -38 -4z"/>
<path d="M10137 11053 c18 -2 50 -2 70 0 21 2 7 4 -32 4 -38 0 -55 -2 -38 -4z"/>
<path d="M10297 11053 c18 -2 50 -2 70 0 21 2 7 4 -32 4 -38 0 -55 -2 -38 -4z"/>
<path d="M10457 11053 c18 -2 50 -2 70 0 21 2 7 4 -32 4 -38 0 -55 -2 -38 -4z"/>
<path d="M10617 11053 c18 -2 50 -2 70 0 21 2 7 4 -32 4 -38 0 -55 -2 -38 -4z"/>
<path d="M10813 11053 c37 -2 96 -2 130 0 34 2 4 3 -68 3 -71 0 -99 -1 -62 -3z"/>
<path d="M1090 5830 l0 -5170 4975 0 c4731 0 4975 1 4975 18 0 9 1 2336 3
5169 l2 5153 -4977 0 -4978 0 0 -5170z m5405 1300 c136 -93 272 -141 452 -161
150 -17 262 -4 595 68 25 5 27 3 22 -18 -2 -13 -9 -55 -14 -94 -29 -209 -127
-404 -279 -555 -146 -145 -356 -274 -576 -354 -154 -57 -172 -66 -199 -105
-29 -41 -35 -59 -100 -303 -34 -126 -96 -532 -83 -544 2 -2 62 63 134 144 276
310 532 537 771 685 271 168 527 255 839 288 161 16 497 -3 438 -25 -125 -48
-243 -140 -315 -246 -69 -102 -135 -261 -181 -440 -39 -153 -36 -350 7 -474 8
-22 13 -41 11 -42 -2 -2 -35 12 -73 30 -355 175 -739 201 -1169 79 -101 -29
-342 -120 -350 -132 -2 -5 26 -12 63 -15 76 -8 294 -47 398 -71 403 -93 788
-280 1049 -509 212 -186 348 -376 442 -620 44 -114 55 -151 70 -235 6 -31 4
-34 -13 -27 -53 21 -216 37 -324 33 -341 -15 -620 -140 -839 -373 -43 -46 -80
-84 -82 -84 -2 0 -5 55 -7 123 -10 485 -169 891 -507 1297 -77 92 -342 360
-356 360 -20 0 -3 -314 26 -487 36 -212 93 -450 151 -627 19 -59 33 -110 31
-113 -3 -2 -69 6 -148 17 -168 26 -342 25 -810 -5 l-286 -18 -124 42 c-293
100 -583 244 -829 412 -361 246 -695 628 -860 983 -88 191 -152 443 -165 653
-7 111 0 289 13 311 8 11 14 11 397 -24 243 -22 600 -22 840 0 99 9 209 19
245 21 36 3 86 8 112 11 l48 5 -41 -113 c-51 -139 -62 -179 -96 -343 -25 -118
-27 -150 -27 -350 0 -169 4 -243 18 -320 32 -177 93 -392 146 -510 9 -22 37
-84 60 -138 54 -123 282 -521 324 -565 10 -11 17 4 35 75 13 48 34 126 48 173
13 47 37 150 54 230 106 518 86 999 -68 1570 -62 232 -69 240 -233 295 -526
178 -876 549 -915 970 l-8 78 29 -6 c16 -3 79 -18 139 -31 170 -39 334 -53
456 -37 185 23 327 76 473 176 38 25 69 45 70 43 2 -2 -15 -66 -36 -143 -111
-402 -138 -529 -137 -660 0 -293 131 -437 461 -505 192 -40 370 -23 558 52
176 70 259 161 291 317 11 53 11 82 -4 199 -30 233 -112 602 -165 741 -5 14
-3 14 18 -1 14 -10 52 -36 85 -58z"/>
</g>
</svg>
